<svg width="5807" height="3781" viewBox="0 0 5807 3781" fill="none" xmlns="http://www.w3.org/2000/svg">
<rect x="671" y="807" width="2109" height="2130" rx="640" fill="white"/>
<path fill-rule="evenodd" clip-rule="evenodd" d="M1481.69 1001.91C1238.25 918.127 998.804 927.806 811.247 1047.15C736.257 1140.76 687.02 1255.89 674.28 1381.8C717.975 1281.93 783.807 1197.95 872.204 1137.27C1108.25 975.23 1441.33 1022.96 1743.48 1222.54C1853.18 1168.8 1976.46 1138.64 2106.77 1138.64C2384.01 1138.64 2629.48 1275.18 2780 1484.89V1447C2780 1093.54 2493.46 807 2140 807H1311C1140.18 807 984.987 873.924 870.217 982.983C1053.37 897.697 1271.98 900.124 1490.81 975.435C1498.12 977.951 1502 985.918 1499.49 993.229C1496.97 1000.54 1489 1004.43 1481.69 1001.91ZM2747.8 2498.01C2694.98 2562.54 2632.67 2618.95 2563.02 2665.09C2556.42 2712.13 2546.75 2757.68 2533.99 2801.39C2632.41 2724.4 2707.73 2619.23 2747.8 2498.01ZM2531.7 2684.85C2496.1 2706.21 2458.77 2724.97 2419.97 2740.86C2402.06 2799.51 2377.56 2853.96 2346.4 2902.99C2399.77 2884.82 2449.96 2859.8 2495.94 2828.97C2511.51 2783.22 2523.43 2735.03 2531.7 2684.85ZM2388.77 2752.91C2361.56 2762.78 2333.7 2771.27 2305.26 2778.28C2281.66 2837.76 2248.97 2890.19 2207.09 2933.53C2241.2 2929.97 2274.51 2923.74 2306.81 2915.04C2341.31 2866.94 2368.64 2812.44 2388.77 2752.91ZM2274.15 2785.31C2244.16 2791.48 2213.58 2796.02 2182.5 2798.84C2157.82 2844.87 2124.71 2883.17 2082.98 2911.82C2068.84 2921.52 2054.03 2929.9 2038.61 2937H2140C2148.86 2937 2157.67 2936.82 2166.44 2936.46C2212.07 2896.02 2248.05 2844.92 2274.15 2785.31ZM2153.68 2800.96C2138.15 2801.83 2122.51 2802.27 2106.77 2802.27C2086.66 2802.27 2066.72 2801.55 2046.97 2800.14C2040.75 2805.46 2034.24 2810.46 2027.43 2815.13C1905.71 2898.69 1718.48 2857.08 1529.92 2724.84L1475.62 2779.15C1524.77 2814.92 1574.15 2845.27 1622.85 2869.77C1691.57 2904.36 1758.05 2926.93 1820.16 2937H1959.4C1999.8 2929.35 2036.77 2914.43 2069.4 2892.03C2103.44 2868.66 2131.59 2837.95 2153.68 2800.96ZM1293.36 2619.57L1346.22 2566.71C1285.8 2504.48 1227.53 2433.58 1173.75 2355.23C904.216 1962.6 849.43 1531.93 1051.38 1393.3C1156.6 1321.07 1310.74 1342.37 1472.39 1434.87C1484.6 1420.33 1497.29 1406.22 1510.45 1392.56C1489.38 1379.92 1468.36 1368.33 1447.47 1357.82C1272.25 1269.65 1111.62 1259.57 1000.92 1335.57C890.218 1411.56 841.894 1565.09 861.203 1760.28C880.414 1954.49 966.441 2183.94 1115.88 2401.63C1171.14 2482.13 1231.02 2555.11 1293.36 2619.57ZM1527.84 1375.02C1324.75 1251.75 1124.26 1221.78 987.334 1315.78C744.843 1482.24 793.534 1974.48 1096.09 2415.21C1152.13 2496.84 1212.94 2570.98 1276.39 2636.54L1213.02 2699.91C1143.98 2630.87 1078.35 2552.26 1018.49 2465.06C853.968 2225.4 765.657 1968.32 754.789 1747.24C743.896 1525.68 810.602 1344.74 950.201 1248.91C1089.8 1153.08 1282.62 1155.86 1485.46 1245.65C1525.23 1263.25 1565.22 1284.14 1605.06 1308.17C1577.96 1328.87 1552.18 1351.2 1527.84 1375.02ZM1627.67 1291.5C1656.12 1271.26 1685.9 1252.76 1716.85 1236.19C1422.97 1046.55 1107.5 1007.28 886.919 1158.7C782.661 1230.27 710.537 1336.9 671 1465.64V2297C671 2552.52 820.742 2773.06 1037.26 2875.67L1194.63 2718.3C1124.4 2648.05 1057.75 2568.2 997.053 2479.78C663.452 1993.82 635.888 1433.14 935.486 1227.47C1116.95 1102.9 1376.82 1137.14 1627.67 1291.5ZM1379.33 2875.43L1317.76 2937H1474.26C1442.46 2918.39 1410.75 2897.85 1379.33 2875.43ZM1397.98 2856.79L1458.44 2796.32C1546.67 2860.94 1635.99 2908.68 1721.39 2937H1527.61C1484.26 2913.98 1440.89 2887.18 1397.98 2856.79ZM1458.28 1452.14C1452.99 1449.15 1447.71 1446.23 1442.45 1443.39C1290.5 1361.54 1154.5 1349.19 1063.83 1411.44C973.157 1473.68 935.802 1605.02 957.582 1776.24C979.2 1946.18 1058.68 2148.74 1191.88 2342.78C1244.97 2420.1 1302.38 2489.95 1361.78 2551.15L1401.59 2511.33C1342.44 2455.3 1285.5 2388.93 1233.99 2313.89C1016.64 1997.27 978.106 1646.1 1147.93 1529.52C1217.18 1481.98 1310.4 1480.79 1411.25 1517.54C1425.89 1494.96 1441.59 1473.14 1458.28 1452.14ZM1399.27 1536.58C1304.36 1502.99 1220.68 1506.26 1160.38 1547.66C1085.37 1599.14 1052.42 1705.58 1067.64 1844.29C1082.74 1981.97 1145.09 2145.52 1252.12 2301.44C1302.99 2375.53 1359.08 2440.82 1417.16 2495.77L1443.42 2469.51C1419.35 2437.35 1397.54 2403.39 1378.25 2367.85C1351.6 2336.95 1325.78 2303.53 1301.29 2267.85C1120.92 2005.11 1080.44 1719.53 1210.87 1629.99C1250.88 1602.52 1302.33 1596.69 1359.65 1609.4C1371.67 1584.41 1384.9 1560.11 1399.27 1536.58ZM1350.99 1627.98C1299.53 1617.45 1255.38 1623.69 1222.18 1646.48C1166.64 1684.61 1143.29 1768.02 1159.33 1881.16C1175.18 1992.93 1228.96 2127.15 1317.78 2256.53C1325.19 2267.33 1332.72 2277.91 1340.35 2288.26C1299.97 2190.35 1277.69 2083.01 1277.69 1970.45C1277.69 1848.37 1303.9 1732.43 1350.99 1627.98ZM1599.04 2655.73C1635.88 2675.02 1672.25 2689.76 1707.4 2699.58C1800.39 2750.96 1904.27 2784.95 2014.69 2797.2C1924.01 2859.21 1788.15 2846.8 1636.37 2765.04C1606.44 2748.91 1576.12 2730.2 1545.72 2709.04L1599.04 2655.73ZM2762.98 1970.45C2762.98 2334.07 2469.19 2628.84 2106.77 2628.84C1744.35 2628.84 1450.55 2334.07 1450.55 1970.45C1450.55 1606.84 1744.35 1312.07 2106.77 1312.07C2469.19 1312.07 2762.98 1606.84 2762.98 1970.45Z" fill="#61B648"/>
<path d="M2212.66 1413.24C2223.33 1405.2 2226.14 1390.91 2224.21 1386.17C2209.66 1384.48 2197.66 1379.19 2188.77 1370.34L2151.94 1333.51C2126.23 1307.8 2107.28 1300.65 2083.08 1301.47C2076.08 1307.45 2065.89 1316.49 2055.1 1327.08C2068.85 1324.97 2087.07 1319.33 2106.02 1334.51L2062.45 1378.08C2043.63 1394.35 2030.94 1376.61 2025.19 1359.96C2014.14 1371.48 2006.16 1381.66 2005.34 1386.95C2008.79 1393.19 2013.89 1399.48 2018.6 1404.2C2035.46 1421.05 2060.24 1422.71 2083.66 1399.29L2130.16 1352.79L2158.49 1381.12L2080.59 1459.02L2121.35 1499.78C2125.56 1498.64 2134.26 1492.62 2143.48 1483.52L2121.25 1461.29L2180.91 1401.63C2189.57 1407.93 2201.04 1411.97 2212.66 1413.24Z" fill="white"/>
<path d="M2754.15 2268.31C2766.97 2264.56 2774.65 2252.19 2774.52 2247.08C2761.51 2240.35 2752.15 2231.15 2746.97 2219.74L2725.54 2172.27C2710.58 2139.12 2695.38 2125.73 2672.45 2117.95C2663.79 2121.07 2651.07 2125.92 2637.22 2132C2650.84 2134.89 2669.87 2136.07 2682.23 2156.96L2626.07 2182.32C2602.71 2190.88 2597.11 2169.8 2597.62 2152.19C2583.21 2159.06 2572.15 2165.76 2569.51 2170.42C2570.53 2177.48 2573.08 2185.16 2575.82 2191.25C2585.63 2212.97 2608.22 2223.28 2638.41 2209.66L2698.34 2182.6L2714.83 2219.12L2614.42 2264.44L2638.14 2316.98C2642.47 2317.4 2652.74 2314.84 2664.59 2309.59L2651.66 2280.94L2728.55 2246.23C2734.43 2255.18 2743.73 2263.02 2754.15 2268.31Z" fill="white"/>
<path d="M2379.84 1599.07C2391.56 1592.67 2396.42 1578.95 2395.2 1573.98C2381.05 1570.19 2369.95 1563.2 2362.45 1553.16L2331.37 1511.36C2309.68 1482.17 2291.97 1472.34 2267.91 1469.63C2260.11 1474.53 2248.72 1481.99 2236.49 1490.89C2250.41 1490.8 2269.25 1487.88 2285.79 1505.66L2236.34 1542.42C2215.36 1555.78 2205.38 1536.38 2202.12 1519.07C2189.51 1528.85 2180.14 1537.77 2178.55 1542.88C2181.05 1549.56 2185.18 1556.52 2189.16 1561.88C2203.38 1581.01 2227.66 1586.25 2254.24 1566.49L2307.01 1527.26L2330.91 1559.41L2242.51 1625.14L2276.9 1671.4C2281.23 1670.88 2290.71 1666.19 2301.17 1658.53L2282.41 1633.3L2350.11 1582.97C2357.77 1590.46 2368.53 1596.13 2379.84 1599.07Z" fill="white"/>
<path d="M2534.04 1810.93C2546.51 1806.13 2553.13 1793.16 2552.57 1788.07C2539.05 1782.46 2528.96 1774.07 2522.84 1763.13L2497.53 1717.61C2479.85 1685.82 2463.6 1673.75 2440.1 1667.9C2431.72 1671.73 2419.45 1677.63 2406.16 1684.84C2419.97 1686.59 2439.03 1686.17 2453.09 1705.97L2399.24 1735.91C2376.68 1746.39 2369.34 1725.85 2368.38 1708.26C2354.59 1716.31 2344.13 1723.91 2341.89 1728.77C2343.49 1735.72 2346.67 1743.17 2349.91 1749C2361.49 1769.83 2384.87 1778.22 2413.81 1762.13L2471.29 1730.17L2490.76 1765.18L2394.48 1818.72L2422.49 1869.1C2426.85 1869.15 2436.87 1865.75 2448.24 1859.53L2432.96 1832.06L2506.69 1791.06C2513.3 1799.49 2523.22 1806.53 2534.04 1810.93Z" fill="white"/>
<path d="M2650.56 2026.03C2663.25 2021.83 2670.48 2009.19 2670.16 2004.09C2656.92 1997.83 2647.25 1988.97 2641.66 1977.75L2618.56 1931.07C2602.42 1898.48 2586.76 1885.64 2563.57 1878.67C2555.02 1882.1 2542.48 1887.4 2528.86 1893.97C2542.57 1896.38 2561.63 1896.87 2574.73 1917.32L2519.5 1944.65C2496.47 1954.04 2490.12 1933.17 2490 1915.55C2475.85 1922.93 2465.03 1930.03 2462.56 1934.77C2463.83 1941.79 2466.65 1949.38 2469.61 1955.36C2480.18 1976.72 2503.12 1986.22 2532.81 1971.53L2591.74 1942.36L2609.51 1978.27L2510.79 2027.13L2536.36 2078.8C2540.71 2079.06 2550.88 2076.14 2562.53 2070.47L2548.59 2042.3L2624.19 2004.87C2630.39 2013.61 2639.96 2021.11 2650.56 2026.03Z" fill="white"/>
<path d="M1869.32 1473.91C1879.64 1465.42 1881.82 1451.03 1879.68 1446.38C1865.08 1445.32 1852.86 1440.55 1843.6 1432.1L1805.2 1396.91C1778.39 1372.34 1759.15 1366.01 1735.01 1367.89C1728.27 1374.17 1718.49 1383.64 1708.16 1394.69C1721.82 1391.98 1739.77 1385.56 1759.36 1399.9L1717.73 1445.33C1699.63 1462.4 1686.18 1445.23 1679.71 1428.84C1669.17 1440.83 1661.65 1451.35 1661.06 1456.67C1664.77 1462.76 1670.14 1468.82 1675.06 1473.33C1692.63 1489.43 1717.46 1490.01 1739.84 1465.59L1784.27 1417.12L1813.81 1444.19L1739.37 1525.4L1781.87 1564.35C1786.02 1563.02 1794.45 1556.63 1803.27 1547.14L1780.1 1525.89L1837.1 1463.7C1846.03 1469.62 1857.67 1473.16 1869.32 1473.91Z" fill="white"/>
<path d="M2053.17 1652.77C2064.44 1645.6 2068.37 1631.58 2066.81 1626.71C2052.45 1623.87 2040.9 1617.64 2032.74 1608.13L1998.94 1568.5C1975.33 1540.84 1957.01 1532.21 1932.82 1531.12C1925.37 1536.53 1914.5 1544.74 1902.9 1554.44C1916.78 1553.42 1935.38 1549.24 1953.08 1565.87L1906.2 1605.87C1886.16 1620.6 1874.9 1601.91 1870.49 1584.85C1858.56 1595.47 1849.81 1604.99 1848.57 1610.19C1851.51 1616.69 1856.1 1623.36 1860.43 1628.44C1875.9 1646.57 1900.47 1650.18 1925.67 1628.68L1975.69 1586L2001.7 1616.48L1917.9 1687.98L1955.31 1731.83C1959.59 1731.03 1968.74 1725.71 1978.66 1717.37L1958.25 1693.45L2022.43 1638.7C2030.57 1645.66 2041.69 1650.59 2053.17 1652.77Z" fill="white"/>
<path d="M2485.3 2317.36C2498.32 2314.36 2506.7 2302.45 2506.86 2297.34C2494.26 2289.88 2485.45 2280.16 2480.93 2268.47L2462.26 2219.84C2449.23 2185.89 2434.83 2171.65 2412.38 2162.56C2403.56 2165.17 2390.58 2169.29 2376.41 2174.56C2389.83 2178.23 2408.76 2180.49 2419.9 2202.07L2362.38 2224.15C2338.57 2231.36 2334.19 2209.99 2335.71 2192.44C2320.93 2198.47 2309.5 2204.53 2306.6 2209.02C2307.21 2216.13 2309.31 2223.95 2311.7 2230.18C2320.24 2252.43 2342.21 2264.02 2373.13 2252.15L2434.52 2228.59L2448.87 2265.99L2346.03 2305.47L2366.69 2359.29C2370.99 2359.95 2381.39 2357.99 2393.52 2353.43L2382.26 2324.08L2461.01 2293.85C2466.37 2303.12 2475.21 2311.48 2485.3 2317.36Z" fill="white"/>
<path d="M2547.7 2554.75C2560.9 2552.64 2570.07 2541.33 2570.57 2536.24C2558.51 2527.94 2550.38 2517.64 2546.67 2505.67L2531.36 2455.88C2520.67 2421.12 2507.28 2405.93 2485.5 2395.34C2476.51 2397.35 2463.28 2400.56 2448.79 2404.87C2461.93 2409.44 2480.66 2412.99 2490.31 2435.27L2431.41 2453.38C2407.17 2458.95 2404.25 2437.33 2406.97 2419.93C2391.81 2424.93 2380 2430.2 2376.8 2434.49C2376.92 2441.62 2378.48 2449.57 2380.44 2455.94C2387.45 2478.73 2408.57 2491.79 2440.23 2482.05L2503.08 2462.72L2514.86 2501.02L2409.57 2533.4L2426.51 2588.5C2430.76 2589.46 2441.27 2588.21 2453.68 2584.48L2444.44 2554.43L2525.07 2529.64C2529.79 2539.25 2538.03 2548.2 2547.7 2554.75Z" fill="white"/>
<path d="M1693.32 1651.38C1703 1642.17 1704.14 1627.65 1701.67 1623.17C1687.03 1623.17 1674.49 1619.29 1664.65 1611.54L1623.81 1579.2C1595.3 1556.63 1575.66 1551.71 1551.71 1555.33C1545.44 1562.08 1536.37 1572.23 1526.87 1583.99C1540.29 1580.3 1557.73 1572.61 1578.31 1585.5L1540.06 1633.81C1523.24 1652.14 1508.59 1635.98 1500.96 1620.1C1491.31 1632.82 1484.56 1643.86 1484.36 1649.2C1488.5 1655.01 1494.29 1660.67 1499.52 1664.81C1518.21 1679.6 1543.02 1678.39 1563.57 1652.43L1604.4 1600.87L1635.81 1625.74L1567.42 1712.1L1612.62 1747.89C1616.66 1746.27 1624.61 1739.28 1632.72 1729.18L1608.08 1709.66L1660.44 1643.52C1669.78 1648.77 1681.64 1651.47 1693.32 1651.38Z" fill="white"/>
<path d="M1877.27 1820.18C1887.61 1811.72 1889.83 1797.33 1887.7 1792.67C1873.1 1791.58 1860.89 1786.77 1851.66 1778.3L1813.36 1743C1786.62 1718.35 1767.39 1711.98 1743.24 1713.79C1736.49 1720.05 1726.69 1729.5 1716.33 1740.51C1729.99 1737.84 1747.95 1731.48 1767.51 1745.87L1725.75 1791.18C1707.61 1808.2 1694.21 1790.99 1687.78 1774.59C1677.21 1786.55 1669.66 1797.05 1669.05 1802.36C1672.75 1808.46 1678.1 1814.54 1683.01 1819.06C1700.53 1835.21 1725.36 1835.86 1747.81 1811.51L1792.37 1763.15L1821.83 1790.3L1747.18 1871.31L1789.57 1910.38C1793.72 1909.06 1802.17 1902.69 1811.01 1893.22L1787.9 1871.92L1845.07 1809.88C1853.99 1815.82 1865.61 1819.39 1877.27 1820.18Z" fill="white"/>
<path d="M2021.66 2009.81C2033.58 2003.77 2038.84 1990.19 2037.77 1985.19C2023.74 1980.98 2012.85 1973.66 2005.65 1963.4L1975.84 1920.7C1955.02 1890.88 1937.61 1880.52 1913.64 1877.1C1905.7 1881.76 1894.09 1888.88 1881.61 1897.41C1895.52 1897.74 1914.44 1895.38 1930.44 1913.64L1879.92 1948.92C1858.55 1961.64 1849.15 1941.95 1846.41 1924.55C1833.51 1933.96 1823.88 1942.59 1822.14 1947.65C1824.44 1954.4 1828.36 1961.49 1832.18 1966.96C1845.83 1986.5 1869.93 1992.47 1897.09 1973.51L1951.01 1935.87L1973.94 1968.72L1883.62 2031.78L1916.62 2079.04C1920.96 2078.65 1930.58 2074.25 1941.26 2066.9L1923.26 2041.13L1992.43 1992.83C1999.86 2000.55 2010.45 2006.54 2021.66 2009.81Z" fill="white"/>
<path d="M2219.24 2710.7C2232.49 2712.38 2244.47 2704.11 2246.39 2699.37C2237.15 2688.01 2232.25 2675.84 2232.05 2663.31L2231.36 2611.22C2230.88 2574.86 2222.3 2556.52 2204.38 2540.22C2195.2 2539.62 2181.6 2538.99 2166.48 2539.04C2177.8 2547.13 2194.78 2555.8 2197.77 2579.9L2136.15 2580.71C2111.32 2579.24 2114.61 2557.67 2122.11 2541.73C2106.15 2542.27 2093.33 2544.01 2089.06 2547.22C2087.17 2554.1 2086.43 2562.16 2086.52 2568.83C2086.84 2592.67 2103.43 2611.14 2136.55 2610.7L2202.3 2609.83L2202.83 2649.89L2092.68 2651.35L2093.45 2708.99C2097.25 2711.11 2107.69 2712.86 2120.65 2712.78L2120.23 2681.35L2204.59 2680.23C2206.4 2690.79 2211.8 2701.69 2219.24 2710.7Z" fill="white"/>
<path d="M2217.36 2449.61C2230.63 2448.05 2240.26 2437.13 2240.98 2432.06C2229.26 2423.27 2221.57 2412.64 2218.35 2400.53L2205.1 2350.16C2195.85 2314.99 2183.09 2299.26 2161.76 2287.78C2152.7 2289.42 2139.35 2292.09 2124.69 2295.79C2137.64 2300.9 2156.21 2305.21 2164.93 2327.88L2105.34 2343.55C2080.88 2348.12 2078.86 2326.4 2082.29 2309.12C2066.94 2313.5 2054.92 2318.28 2051.54 2322.43C2051.37 2329.56 2052.61 2337.56 2054.31 2344.02C2060.37 2367.07 2080.94 2380.99 2112.97 2372.56L2176.56 2355.83L2186.76 2394.58L2080.22 2422.6L2094.89 2478.35C2099.09 2479.48 2109.64 2478.67 2122.2 2475.46L2114.2 2445.05L2195.78 2423.59C2200.1 2433.39 2207.97 2442.67 2217.36 2449.61Z" fill="white"/>
<path d="M2137.08 2216.19C2149.72 2211.87 2156.83 2199.16 2156.47 2194.05C2143.16 2187.93 2133.4 2179.16 2127.7 2168L2104.14 2121.55C2087.68 2089.12 2071.9 2076.44 2048.63 2069.7C2040.12 2073.21 2027.63 2078.64 2014.08 2085.34C2027.81 2087.61 2046.87 2087.92 2060.17 2108.23L2005.22 2136.11C1982.28 2145.73 1975.73 2124.92 1975.44 2107.31C1961.36 2114.83 1950.61 2122.03 1948.19 2126.8C1949.52 2133.81 1952.42 2141.37 1955.44 2147.32C1966.22 2168.57 1989.26 2177.85 2018.8 2162.86L2077.44 2133.11L2095.57 2168.84L1997.33 2218.68L2023.41 2270.09C2027.76 2270.31 2037.9 2267.29 2049.5 2261.5L2035.27 2233.47L2110.5 2195.3C2116.79 2203.97 2126.43 2211.38 2137.08 2216.19Z" fill="white"/>
<path d="M2375.01 2075.05C2387.36 2069.95 2393.67 2056.83 2392.99 2051.76C2379.34 2046.46 2369.05 2038.32 2362.68 2027.53L2336.3 1982.62C2317.87 1951.26 2301.34 1939.57 2277.7 1934.29C2269.42 1938.32 2257.29 1944.5 2244.18 1952.03C2258.02 1953.45 2277.07 1952.58 2291.6 1972.03L2238.47 2003.25C2216.16 2014.26 2208.34 1993.9 2206.96 1976.33C2193.37 1984.7 2183.09 1992.55 2180.96 1997.46C2182.73 2004.38 2186.08 2011.75 2189.46 2017.5C2201.54 2038.05 2225.1 2045.89 2253.66 2029.11L2310.36 1995.8L2330.65 2030.34L2235.67 2086.14L2264.87 2135.85C2269.23 2135.8 2279.16 2132.16 2290.38 2125.67L2274.46 2098.56L2347.19 2055.83C2354 2064.1 2364.08 2070.9 2375.01 2075.05Z" fill="white"/>
<path d="M2235.93 1854.96C2247.63 1848.51 2252.43 1834.76 2251.18 1829.8C2237.02 1826.07 2225.89 1819.13 2218.35 1809.12L2187.09 1767.45C2165.27 1738.36 2147.53 1728.6 2123.45 1725.99C2115.67 1730.93 2104.31 1738.43 2092.13 1747.38C2106.05 1747.24 2124.87 1744.24 2141.49 1761.94L2092.19 1798.92C2071.26 1812.36 2061.21 1793 2057.87 1775.71C2045.3 1785.55 2035.97 1794.5 2034.41 1799.62C2036.93 1806.29 2041.1 1813.24 2045.1 1818.57C2059.4 1837.64 2083.7 1842.79 2110.19 1822.91L2162.8 1783.46L2186.84 1815.51L2098.71 1881.6L2133.3 1927.72C2137.62 1927.18 2147.09 1922.45 2157.51 1914.75L2138.65 1889.6L2206.13 1838.98C2213.82 1846.44 2224.61 1852.06 2235.93 1854.96Z" fill="white"/>
<path d="M3773.3 1590H3736.83L3731.19 1543H3545.82V1279.8H3597.33V1497.13H3687.95V1279.8H3739.46V1497.13H3773.3V1590ZM3802.12 1279.8H3958.16V1325.67H3853.63V1386.96H3948.76V1432.83H3853.63V1497.13H3960.04V1543H3802.12V1279.8ZM4146.33 1432.83H4050.08V1543H3998.56V1279.8H4050.08V1386.96H4146.33V1279.8H4197.84V1543H4146.33V1432.83ZM4430.35 1325.67H4353.65V1543H4302.13V1325.67H4225.05V1279.8H4430.35V1325.67ZM4457.18 1282.43C4467.71 1280.43 4479.24 1278.92 4491.77 1277.92C4504.56 1276.67 4517.22 1276.04 4529.75 1276.04C4542.78 1276.04 4555.82 1277.17 4568.85 1279.42C4582.14 1281.43 4594.05 1285.69 4604.57 1292.21C4615.1 1298.47 4623.62 1307.37 4630.14 1318.9C4636.91 1330.18 4640.29 1344.97 4640.29 1363.27C4640.29 1379.82 4637.41 1393.85 4631.65 1405.38C4625.88 1416.66 4618.23 1425.94 4608.71 1433.21C4599.18 1440.48 4588.28 1445.74 4576 1449C4563.97 1452.26 4551.43 1453.89 4538.4 1453.89C4537.14 1453.89 4535.14 1453.89 4532.38 1453.89C4529.62 1453.89 4526.74 1453.89 4523.73 1453.89C4520.73 1453.64 4517.72 1453.39 4514.71 1453.14C4511.95 1452.89 4509.95 1452.63 4508.69 1452.38V1543H4457.18V1282.43ZM4533.89 1320.41C4528.87 1320.41 4524.11 1320.66 4519.6 1321.16C4515.09 1321.41 4511.45 1321.79 4508.69 1322.29V1407.64C4509.7 1407.89 4511.2 1408.14 4513.21 1408.39C4515.21 1408.64 4517.34 1408.89 4519.6 1409.14C4521.85 1409.14 4523.98 1409.14 4525.99 1409.14C4528.25 1409.14 4529.87 1409.14 4530.88 1409.14C4537.65 1409.14 4544.29 1408.52 4550.81 1407.26C4557.57 1406.01 4563.59 1403.75 4568.85 1400.5C4574.12 1396.99 4578.25 1392.22 4581.26 1386.21C4584.52 1380.19 4586.15 1372.3 4586.15 1362.52C4586.15 1354.25 4584.65 1347.48 4581.64 1342.22C4578.63 1336.7 4574.62 1332.31 4569.61 1329.06C4564.84 1325.8 4559.33 1323.54 4553.06 1322.29C4546.79 1321.03 4540.4 1320.41 4533.89 1320.41ZM3355.39 2019.1C3347.37 2024.86 3337.09 2029 3324.56 2031.5C3312.27 2034.01 3299.62 2035.26 3286.58 2035.26C3270.79 2035.26 3255.75 2032.88 3241.46 2028.12C3227.42 2023.11 3215.02 2015.21 3204.24 2004.43C3193.46 1993.4 3184.81 1979.24 3178.29 1961.94C3172.03 1944.4 3168.89 1923.22 3168.89 1898.4C3168.89 1872.58 3172.4 1851.02 3179.42 1833.73C3186.69 1816.18 3195.97 1802.14 3207.25 1791.62C3218.78 1780.84 3231.56 1773.19 3245.6 1768.68C3259.63 1763.92 3273.67 1761.54 3287.71 1761.54C3302.75 1761.54 3315.41 1762.54 3325.69 1764.54C3336.21 1766.55 3344.86 1768.93 3351.63 1771.69L3341.48 1815.3C3335.71 1812.55 3328.82 1810.54 3320.8 1809.29C3313.03 1808.03 3303.5 1807.41 3292.22 1807.41C3271.42 1807.41 3254.62 1814.8 3241.84 1829.59C3229.3 1844.38 3223.04 1867.32 3223.04 1898.4C3223.04 1911.94 3224.54 1924.34 3227.55 1935.62C3230.56 1946.65 3235.07 1956.18 3241.09 1964.2C3247.35 1971.97 3255 1978.11 3264.02 1982.62C3273.3 1986.89 3283.95 1989.02 3295.98 1989.02C3307.26 1989.02 3316.79 1987.89 3324.56 1985.63C3332.33 1983.38 3339.1 1980.49 3344.86 1976.98L3355.39 2019.1ZM3459.76 1882.98L3467.28 1917.2H3469.53L3475.55 1881.86L3515.03 1766.8H3568.05L3498.11 1948.78C3492.6 1963.07 3487.21 1975.48 3481.94 1986.01C3476.93 1996.54 3471.41 2005.31 3465.4 2012.33C3459.63 2019.1 3453.12 2024.23 3445.85 2027.74C3438.58 2031 3430.05 2032.63 3420.28 2032.63C3412.01 2032.63 3405.24 2032.01 3399.97 2030.75C3394.96 2029.75 3389.45 2027.37 3383.43 2023.61L3396.59 1981.87C3400.85 1984.13 3404.74 1985.51 3408.25 1986.01C3411.76 1986.51 3415.52 1986.76 3419.53 1986.76C3431.31 1986.76 3439.58 1977.49 3444.34 1958.94L3345.83 1766.8H3406.37L3459.76 1882.98ZM3807.9 2077H3771.42L3765.78 2030H3596.58L3590.94 2077H3554.47V1984.13H3582.3C3584.05 1981.37 3586.93 1975.23 3590.94 1965.7C3594.96 1956.18 3598.97 1942.77 3602.98 1925.47C3606.99 1907.93 3610.37 1886.12 3613.13 1860.05C3615.89 1833.73 3617.14 1802.65 3616.89 1766.8H3774.43V1984.13H3807.9V2077ZM3722.92 1984.13V1812.67H3664.64C3663.14 1857.29 3659.5 1893.89 3653.74 1922.46C3648.22 1950.79 3642.58 1971.34 3636.82 1984.13H3722.92ZM3837 1766.8H3993.04V1812.67H3888.51V1873.96H3983.64V1919.83H3888.51V1984.13H3994.92V2030H3837V1766.8ZM4033.45 1766.8H4195.5V1812.67H4084.96V1867.57C4089.22 1866.82 4094.36 1866.06 4100.37 1865.31C4106.64 1864.56 4112.78 1864.18 4118.8 1864.18C4132.84 1864.18 4145.75 1865.56 4157.53 1868.32C4169.31 1871.08 4179.33 1875.71 4187.61 1882.23C4196.13 1888.5 4202.77 1896.9 4207.53 1907.42C4212.3 1917.7 4214.68 1930.36 4214.68 1945.4C4214.68 1960.19 4212.17 1973.1 4207.16 1984.13C4202.4 1995.16 4195.38 2004.31 4186.1 2011.58C4177.08 2018.85 4166.05 2024.36 4153.01 2028.12C4140.23 2031.88 4125.82 2033.76 4109.77 2033.76C4105.51 2033.76 4100.12 2033.63 4093.61 2033.38C4087.34 2033.13 4080.57 2032.76 4073.3 2032.26C4066.28 2031.75 4059.27 2031.13 4052.25 2030.38C4045.23 2029.62 4038.96 2028.62 4033.45 2027.37V1766.8ZM4113.53 1991.27C4120.05 1991.27 4126.07 1990.52 4131.58 1989.02C4137.35 1987.26 4142.36 1984.75 4146.62 1981.5C4150.88 1977.99 4154.27 1973.6 4156.77 1968.34C4159.28 1963.07 4160.53 1956.68 4160.53 1949.16C4160.53 1940.14 4159.16 1932.87 4156.4 1927.35C4153.64 1921.84 4149.88 1917.58 4145.12 1914.57C4140.36 1911.31 4134.84 1909.18 4128.57 1908.18C4122.56 1907.17 4116.04 1906.67 4109.02 1906.67C4105.51 1906.67 4101.13 1907.05 4095.86 1907.8C4090.6 1908.3 4086.96 1908.8 4084.96 1909.3V1989.39C4087.72 1990.14 4091.85 1990.65 4097.37 1990.9C4103.13 1991.15 4108.52 1991.27 4113.53 1991.27ZM4395.65 1919.83H4299.4V2030H4247.88V1766.8H4299.4V1873.96H4395.65V1766.8H4447.16V2030H4395.65V1919.83ZM4695.84 1766.8H4747.35V2030H4695.84V1766.8ZM4492.8 1766.8H4544.31V1861.18C4547.07 1860.67 4551.45 1860.05 4557.47 1859.3C4563.49 1858.54 4569.38 1858.17 4575.14 1858.17C4587.68 1858.17 4599.58 1859.42 4610.86 1861.93C4622.39 1864.43 4632.42 1868.95 4640.94 1875.46C4649.46 1881.73 4656.23 1890.38 4661.25 1901.41C4666.26 1912.19 4668.77 1925.85 4668.77 1942.39C4668.77 1972.97 4659.87 1995.91 4642.07 2011.2C4624.27 2026.24 4597.83 2033.76 4562.73 2033.76C4559.22 2033.76 4554.71 2033.63 4549.2 2033.38C4543.68 2033.38 4537.67 2033.13 4531.15 2032.63C4524.88 2032.13 4518.37 2031.5 4511.6 2030.75C4504.83 2030 4498.56 2028.87 4492.8 2027.37V1766.8ZM4566.49 1987.89C4580.78 1987.89 4592.31 1984.63 4601.09 1978.11C4610.11 1971.34 4614.62 1960.19 4614.62 1944.65C4614.62 1936.38 4613.37 1929.61 4610.86 1924.34C4608.36 1919.08 4604.97 1914.94 4600.71 1911.94C4596.45 1908.93 4591.44 1906.92 4585.67 1905.92C4579.9 1904.67 4573.64 1904.04 4566.87 1904.04C4563.36 1904.04 4559.22 1904.42 4554.46 1905.17C4549.7 1905.67 4546.32 1906.3 4544.31 1907.05V1985.63C4547.07 1986.38 4550.33 1987.01 4554.09 1987.51C4558.1 1987.76 4562.23 1987.89 4566.49 1987.89ZM4854.83 1896.14L4781.51 1766.8H4843.55L4884.16 1842.75L4893.18 1869.45L4901.83 1842.75L4944.32 1766.8H5000.34L4924.39 1893.51L5004.1 2030H4942.81L4896.57 1948.78L4886.41 1920.96L4876.64 1948.78L4830.01 2030H4773.99L4854.83 1896.14ZM3147.86 2362.84H3249C3248.25 2352.81 3246.12 2343.66 3242.61 2335.39C3239.35 2326.87 3234.84 2319.6 3229.07 2313.58C3223.31 2307.57 3216.16 2302.93 3207.64 2299.67C3199.12 2296.16 3189.47 2294.41 3178.69 2294.41C3165.15 2294.41 3153.37 2295.91 3143.34 2298.92C3133.32 2301.68 3125.17 2304.81 3118.9 2308.32L3108 2264.7C3116.77 2260.19 3127.8 2256.43 3141.09 2253.42C3154.37 2250.17 3167.53 2248.54 3180.57 2248.54C3197.86 2248.54 3213.78 2250.92 3228.32 2255.68C3243.11 2260.44 3255.77 2268.34 3266.3 2279.37C3277.08 2290.15 3285.47 2304.31 3291.49 2321.86C3297.5 2339.15 3300.51 2360.33 3300.51 2385.4C3300.51 2411.47 3297 2433.28 3289.98 2450.82C3282.97 2468.37 3273.57 2482.41 3261.78 2492.94C3250 2503.46 3236.47 2510.98 3221.18 2515.5C3205.89 2520.01 3189.97 2522.26 3173.42 2522.26C3159.14 2522.26 3146.1 2521.01 3134.32 2518.5C3122.79 2516 3113.52 2513.11 3106.5 2509.86L3120.03 2465.11C3125.8 2467.87 3133.57 2470.5 3143.34 2473.01C3153.12 2475.26 3164.4 2476.39 3177.18 2476.39C3186.96 2476.39 3195.98 2475.01 3204.26 2472.26C3212.53 2469.5 3219.8 2465.24 3226.06 2459.47C3232.58 2453.46 3237.85 2445.94 3241.86 2436.91C3245.87 2427.89 3248.37 2416.98 3249.38 2404.2H3147.86V2362.84ZM3402.49 2404.58H3388.95V2517H3337.44V2253.8H3388.95V2370.36L3400.99 2365.1L3473.55 2253.8H3532.21L3455.51 2364.34L3435.2 2378.63L3456.26 2393.3L3543.87 2517H3480.32L3402.49 2404.58ZM3738.92 2506.1C3730.9 2511.86 3720.62 2516 3708.08 2518.5C3695.8 2521.01 3683.14 2522.26 3670.11 2522.26C3654.32 2522.26 3639.28 2519.88 3624.99 2515.12C3610.95 2510.11 3598.54 2502.21 3587.76 2491.43C3576.99 2480.4 3568.34 2466.24 3561.82 2448.94C3555.55 2431.4 3552.42 2410.22 3552.42 2385.4C3552.42 2359.58 3555.93 2338.02 3562.95 2320.73C3570.22 2303.18 3579.49 2289.14 3590.77 2278.62C3602.3 2267.84 3615.09 2260.19 3629.12 2255.68C3643.16 2250.92 3657.2 2248.54 3671.24 2248.54C3686.28 2248.54 3698.94 2249.54 3709.21 2251.54C3719.74 2253.55 3728.39 2255.93 3735.16 2258.69L3725 2302.3C3719.24 2299.55 3712.35 2297.54 3704.32 2296.29C3696.55 2295.03 3687.03 2294.41 3675.75 2294.41C3654.94 2294.41 3638.15 2301.8 3625.36 2316.59C3612.83 2331.38 3606.56 2354.32 3606.56 2385.4C3606.56 2398.94 3608.07 2411.34 3611.08 2422.62C3614.08 2433.65 3618.6 2443.18 3624.61 2451.2C3630.88 2458.97 3638.52 2465.11 3647.55 2469.62C3656.82 2473.89 3667.48 2476.02 3679.51 2476.02C3690.79 2476.02 3700.31 2474.89 3708.08 2472.63C3715.86 2470.38 3722.62 2467.49 3728.39 2463.98L3738.92 2506.1ZM3914.36 2299.67H3822.24V2517H3770.72V2253.8H3965.87V2517H3914.36V2299.67ZM4010.86 2253.8H4166.9V2299.67H4062.38V2360.96H4157.5V2406.83H4062.38V2471.13H4168.78V2517H4010.86V2253.8ZM4207.31 2256.43C4217.84 2254.43 4229.37 2252.92 4241.9 2251.92C4254.69 2250.67 4267.34 2250.04 4279.88 2250.04C4292.91 2250.04 4305.95 2251.17 4318.98 2253.42C4332.27 2255.43 4344.17 2259.69 4354.7 2266.21C4365.23 2272.47 4373.75 2281.37 4380.27 2292.9C4387.04 2304.18 4390.42 2318.97 4390.42 2337.27C4390.42 2353.82 4387.54 2367.85 4381.77 2379.38C4376.01 2390.66 4368.36 2399.94 4358.84 2407.21C4349.31 2414.48 4338.41 2419.74 4326.13 2423C4314.09 2426.26 4301.56 2427.89 4288.53 2427.89C4287.27 2427.89 4285.27 2427.89 4282.51 2427.89C4279.75 2427.89 4276.87 2427.89 4273.86 2427.89C4270.85 2427.64 4267.85 2427.39 4264.84 2427.14C4262.08 2426.89 4260.08 2426.63 4258.82 2426.38V2517H4207.31V2256.43ZM4284.01 2294.41C4279 2294.41 4274.24 2294.66 4269.73 2295.16C4265.21 2295.41 4261.58 2295.79 4258.82 2296.29V2381.64C4259.82 2381.89 4261.33 2382.14 4263.33 2382.39C4265.34 2382.64 4267.47 2382.89 4269.73 2383.14C4271.98 2383.14 4274.11 2383.14 4276.12 2383.14C4278.37 2383.14 4280 2383.14 4281.01 2383.14C4287.77 2383.14 4294.42 2382.52 4300.93 2381.26C4307.7 2380.01 4313.72 2377.75 4318.98 2374.5C4324.25 2370.99 4328.38 2366.22 4331.39 2360.21C4334.65 2354.19 4336.28 2346.3 4336.28 2336.52C4336.28 2328.25 4334.77 2321.48 4331.77 2316.22C4328.76 2310.7 4324.75 2306.31 4319.73 2303.06C4314.97 2299.8 4309.46 2297.54 4303.19 2296.29C4296.92 2295.03 4290.53 2294.41 4284.01 2294.41ZM4606.42 2299.67H4529.71V2517H4478.2V2299.67H4401.12V2253.8H4606.42V2299.67ZM4786.66 2371.11L4789.66 2336.9H4787.78L4770.11 2372.24L4671.98 2517H4633.25V2253.8H4684.76V2397.06L4681 2432.4H4683.26L4701.68 2395.93L4799.82 2253.8H4838.17V2517H4786.66V2371.11ZM4906.23 2400.44V2360.21H4915.25C4917.51 2360.21 4920.27 2360.21 4923.53 2360.21C4926.78 2360.21 4930.04 2360.21 4933.3 2360.21C4936.81 2359.96 4940.19 2359.71 4943.45 2359.46C4946.71 2358.95 4949.34 2358.45 4951.35 2357.95C4960.12 2355.95 4967.64 2352.44 4973.91 2347.42C4980.18 2342.16 4983.31 2335.14 4983.31 2326.37C4983.31 2314.34 4979.42 2306.19 4971.65 2301.93C4964.13 2297.42 4954.11 2295.16 4941.57 2295.16C4930.29 2295.16 4919.77 2296.66 4909.99 2299.67C4900.21 2302.68 4892.82 2305.56 4887.81 2308.32L4874.65 2264.7C4877.4 2263.2 4881.29 2261.57 4886.3 2259.82C4891.57 2258.06 4897.46 2256.43 4903.97 2254.93C4910.74 2253.17 4918.01 2251.79 4925.78 2250.79C4933.55 2249.79 4941.45 2249.29 4949.47 2249.29C4960.5 2249.29 4971.28 2250.29 4981.81 2252.3C4992.33 2254.3 5001.73 2257.81 5010.01 2262.82C5018.28 2267.84 5024.92 2274.61 5029.93 2283.13C5034.95 2291.4 5037.45 2302.05 5037.45 2315.09C5037.45 2328.12 5033.94 2340.15 5026.93 2351.18C5020.16 2362.21 5009.13 2370.23 4993.84 2375.25V2377.13C5010.13 2380.39 5022.79 2387.41 5031.81 2398.18C5041.09 2408.96 5045.73 2423.38 5045.73 2441.42C5045.73 2455.71 5042.84 2467.99 5037.08 2478.27C5031.31 2488.3 5023.67 2496.57 5014.14 2503.09C5004.87 2509.61 4994.09 2514.37 4981.81 2517.38C4969.52 2520.63 4956.99 2522.26 4944.21 2522.26C4927.66 2522.26 4912.62 2520.89 4899.09 2518.13C4885.55 2515.37 4875.15 2512.11 4867.88 2508.35L4881.04 2463.61C4886.8 2466.37 4895.07 2469.25 4905.85 2472.26C4916.63 2475.01 4929.42 2476.39 4944.21 2476.39C4949.72 2476.39 4955.23 2475.77 4960.75 2474.51C4966.51 2473.01 4971.65 2470.75 4976.17 2467.74C4980.68 2464.49 4984.31 2460.35 4987.07 2455.34C4989.83 2450.32 4991.21 2444.31 4991.21 2437.29C4991.21 2425.51 4986.82 2416.61 4978.05 2410.59C4969.27 2404.58 4953.61 2401.32 4931.05 2400.82C4928.04 2400.57 4925.78 2400.44 4924.28 2400.44C4922.77 2400.44 4920.14 2400.44 4916.38 2400.44H4906.23Z" fill="white"/>
</svg>
