<?xml version="1.0" encoding="UTF-8" standalone="no"?>
<svg
   xmlns:dc="http://purl.org/dc/elements/1.1/"
   xmlns:cc="http://creativecommons.org/ns#"
   xmlns:rdf="http://www.w3.org/1999/02/22-rdf-syntax-ns#"
   xmlns:svg="http://www.w3.org/2000/svg"
   xmlns="http://www.w3.org/2000/svg"
   xmlns:sodipodi="http://sodipodi.sourceforge.net/DTD/sodipodi-0.dtd"
   xmlns:inkscape="http://www.inkscape.org/namespaces/inkscape"
   style="isolation:isolate"
   viewBox="0 0 600 100"
   width="600pt"
   height="100pt"
   version="1.1"
   id="svg365"
   sodipodi:docname="logo1.svg"
   inkscape:version="1.0.2-2 (e86c870879, 2021-01-15)">
  <metadata
     id="metadata369">
    <rdf:RDF>
      <cc:Work
         rdf:about="">
        <dc:format>image/svg+xml</dc:format>
        <dc:type
           rdf:resource="http://purl.org/dc/dcmitype/StillImage" />
        <dc:title></dc:title>
      </cc:Work>
    </rdf:RDF>
  </metadata>
  <sodipodi:namedview
     pagecolor="#ffffff"
     bordercolor="#666666"
     borderopacity="1"
     objecttolerance="10"
     gridtolerance="10"
     guidetolerance="10"
     inkscape:pageopacity="0"
     inkscape:pageshadow="2"
     inkscape:window-width="1920"
     inkscape:window-height="1017"
     id="namedview367"
     showgrid="true"
     inkscape:zoom="1.62625"
     inkscape:cx="387.63852"
     inkscape:cy="59.368237"
     inkscape:window-x="-8"
     inkscape:window-y="-8"
     inkscape:window-maximized="1"
     inkscape:current-layer="g363"
     inkscape:document-rotation="0">
    <inkscape:grid
       type="xygrid"
       id="grid391" />
  </sodipodi:namedview>
  <defs
     id="defs325">
    <rect
       x="213.52806"
       y="-0.46118371"
       width="387.39432"
       height="99.615682"
       id="rect387" />
    <rect
       x="216.75635"
       y="17.986165"
       width="297.00231"
       height="51.191392"
       id="rect381" />
    <rect
       x="0.46118371"
       y="0"
       width="242.12145"
       height="99.154498"
       id="rect373" />
    <clipPath
       id="_clipPath_HtUxw2bs9frkoKUOXYzUpO4OIB1Nexhc">
      <rect
         width="600"
         height="100"
         id="rect322" />
    </clipPath>
  </defs>
  <g
     inkscape:groupmode="layer"
     id="layer1"
     inkscape:label="Layer 1">
    <path
       id="path470"
       style="fill:#225500;stroke-width:0.75"
       transform="matrix(1.0293964,0,0,0.86211062,-59.444897,6.2004922)"
       d="m 236.25,153.75 c -15.37957,2.65165 -124.84834,-74.62042 -127.5,-89.999991 -2.65165,-15.379572 74.62043,-124.848346 90,-127.499997 15.37957,-2.65165 124.84834,74.620423 127.5,89.999995 2.65165,15.379572 -74.62043,124.848343 -90,127.499993 z" />
  </g>
  <g
     clip-path="url(#_clipPath_HtUxw2bs9frkoKUOXYzUpO4OIB1Nexhc)"
     id="g363">
    <g
       style="isolation:isolate"
       id="g327" />
    <g
       aria-label="ЦСЭ"
       transform="translate(-15.219063,4.6118372)"
       id="text371"
       style="font-style:normal;font-variant:normal;font-weight:bold;font-stretch:normal;font-size:72px;line-height:1.25;font-family:Montserrat;-inkscape-font-specification:'Montserrat Bold';text-align:end;letter-spacing:2.88px;white-space:pre;shape-inside:url(#rect373);fill:#ffffff;fill-opacity:1;stroke:none">
      <path
         d="m 103.97828,19.041818 h 9.25 v 38.125 h 17.9375 v -38.125 h 9.25 v 38.125 h 3.8125 v 17.6875 h -7.6875 v -10 h -32.5625 z"
         style="font-style:normal;font-variant:normal;font-weight:bold;font-stretch:normal;font-size:64px;font-family:Montserrat;-inkscape-font-specification:'Montserrat Bold';text-align:end;text-anchor:end;fill:#ffffff"
         id="path33" />
      <path
         d="m 182.76453,48.010568 8.96875,2.84375 q -2.0625,7.5 -6.875,11.15625 -4.78125,3.625 -12.15625,3.625 -9.125,0 -15,-6.21875 -5.875,-6.25 -5.875,-17.0625 0,-11.4375 5.90625,-17.75 5.90625,-6.34375 15.53125,-6.34375 8.40625,0 13.65625,4.96875 3.125,2.9375 4.6875,8.4375 l -9.15625,2.1875 q -0.8125,-3.5625 -3.40625,-5.625 -2.5625,-2.0625 -6.25,-2.0625 -5.09375,0 -8.28125,3.65625 -3.15625,3.65625 -3.15625,11.84375 0,8.6875 3.125,12.375 3.125,3.6875 8.125,3.6875 3.6875,0 6.34375,-2.34375 2.65625,-2.34375 3.8125,-7.375 z"
         style="font-style:normal;font-variant:normal;font-weight:bold;font-stretch:normal;font-size:64px;font-family:Montserrat;-inkscape-font-specification:'Montserrat Bold';text-align:end;text-anchor:end;fill:#ffffff"
         id="path35" />
      <path
         d="m 215.67578,38.166818 h 14.375 q -0.5625,-5.125 -3.4375,-8.5 -2.84375,-3.40625 -7.75,-3.40625 -3.71875,0 -6.25,2.0625 -2.53125,2.0625 -3.5625,5.46875 l -9.15625,-2.09375 q 1.40625,-6.09375 6.1875,-9.75 4.8125,-3.6875 12.5,-3.6875 10,0 15.625,6.65625 5.625,6.625 5.625,17.28125 0,7.25 -2.625,12.46875 -2.59375,5.21875 -7.15625,8.09375 -4.5625,2.875 -11,2.875 -15.65625,0 -19.28125,-14.71875 l 9.28125,-2.875 q 0.71875,4.96875 3.53125,7.375 2.84375,2.375 6.78125,2.375 4.0625,0 6.9375,-2.84375 2.90625,-2.84375 3.75,-9.09375 h -14.375 z"
         style="font-style:normal;font-variant:normal;font-weight:bold;font-stretch:normal;font-size:64px;font-family:Montserrat;-inkscape-font-specification:'Montserrat Bold';text-align:end;text-anchor:end;fill:#ffffff"
         id="path37" />
    </g>
    <path
       id="rect377"
       style="fill:#ffffff;stroke-width:0.9375"
       d="m 240,10.615877 h 11.52959 V 86.250002 H 240 Z" />
    <g
       aria-label="СПбПУ"
       transform="translate(50.269024,12.913144)"
       id="text385"
       style="font-size:30px;line-height:1.25;font-family:sans-serif;letter-spacing:0px;white-space:pre;shape-inside:url(#rect387);fill:#ffffff">
      <path
         d="m 247.49609,40.343596 8.96875,2.84375 q -2.0625,7.5 -6.875,11.15625 -4.78125,3.625 -12.15625,3.625 -9.125,0 -15,-6.21875 -5.875,-6.25 -5.875,-17.0625 0,-11.4375 5.90625,-17.75 5.90625,-6.34375 15.53125,-6.34375 8.40625,0 13.65625,4.96875 3.125,2.9375 4.6875,8.4375 l -9.15625,2.1875 q -0.8125,-3.5625 -3.40625,-5.625 -2.5625,-2.0625 -6.25,-2.0625 -5.09375,0 -8.28125,3.65625 -3.15625,3.65625 -3.15625,11.84375 0,8.6875 3.125,12.375 3.125,3.6875 8.125,3.6875 3.6875,0 6.34375,-2.34375 2.65625,-2.34375 3.8125,-7.375 z"
         style="font-style:normal;font-variant:normal;font-weight:bold;font-stretch:normal;font-size:64px;font-family:Montserrat;-inkscape-font-specification:'Montserrat Bold';fill:#ffffff"
         id="path52" />
      <path
         d="m 264.52734,11.374846 h 36.4375 v 45.8125 h -9.25 v -38.125 h -17.9375 v 38.125 h -9.25 z"
         style="font-style:normal;font-variant:normal;font-weight:bold;font-stretch:normal;font-size:64px;font-family:Montserrat;-inkscape-font-specification:'Montserrat Bold';fill:#ffffff"
         id="path54" />
      <path
         d="m 335.24609,10.312346 h 5.96875 q -0.28125,3.96875 -2.09375,6.03125 -1.78125,2.03125 -8.84375,2.03125 -0.84375,0 -1.6875,-0.03125 h -1.125 q -4.1875,0 -6.8125,0.9375 -2.625,0.90625 -4.3125,3.5625 -1.65625,2.65625 -1.71875,8.5625 1.9375,-3.65625 5,-5.46875 3.09375,-1.8125 7.34375,-1.8125 6.53125,0 11.0625,5.09375 4.53125,5.0625 4.53125,11.75 0,6.96875 -4.78125,11.96875 -4.75,5 -12.4375,5 -5.28125,0 -9.28125,-2.53125 -4,-2.53125 -5.71875,-6.90625 -1.71875,-4.40625 -1.71875,-14.5625 0,-11.9375 4.375,-17.15625 4.40625,-5.21875 15.34375,-5.21875 h 4.4375 q 1.84375,0 2.46875,-1.25 z m -17.6875,30.53125 q 0,4.53125 2.25,7.1875 2.28125,2.625 5.5625,2.625 3.53125,0 5.78125,-2.71875 2.28125,-2.75 2.28125,-7.0625 0,-4.40625 -2.3125,-7.09375 -2.28125,-2.71875 -5.65625,-2.71875 -3.28125,0 -5.59375,2.65625 -2.3125,2.65625 -2.3125,7.125 z"
         style="font-style:normal;font-variant:normal;font-weight:bold;font-stretch:normal;font-size:64px;font-family:Montserrat;-inkscape-font-specification:'Montserrat Bold';fill:#ffffff"
         id="path56" />
      <path
         d="m 350.05859,11.374846 h 36.4375 v 45.8125 h -9.25 v -38.125 h -17.9375 v 38.125 h -9.25 z"
         style="font-style:normal;font-variant:normal;font-weight:bold;font-stretch:normal;font-size:64px;font-family:Montserrat;-inkscape-font-specification:'Montserrat Bold';fill:#ffffff"
         id="path58" />
      <path
         d="m 391.27734,11.374846 h 10.34375 l 10.6875,23.78125 9.125,-23.78125 h 9.65625 l -15.46875,34.8125 q -2.53125,5.65625 -5.15625,8.625 -2.625,2.9375 -6.78125,2.9375 -4.09375,0 -6.40625,-0.53125 v -6.875 q 1.96875,0.125 3.5625,0.125 3.21875,0 4.59375,-1.15625 1.40625,-1.1875 2.6875,-5.0625 z"
         style="font-style:normal;font-variant:normal;font-weight:bold;font-stretch:normal;font-size:64px;font-family:Montserrat;-inkscape-font-specification:'Montserrat Bold';fill:#ffffff"
         id="path60" />
    </g>
  </g>
</svg>
