<?xml version="1.0" encoding="UTF-8" standalone="no"?>
<svg
   xmlns:dc="http://purl.org/dc/elements/1.1/"
   xmlns:cc="http://creativecommons.org/ns#"
   xmlns:rdf="http://www.w3.org/1999/02/22-rdf-syntax-ns#"
   xmlns:svg="http://www.w3.org/2000/svg"
   xmlns="http://www.w3.org/2000/svg"
   xmlns:sodipodi="http://sodipodi.sourceforge.net/DTD/sodipodi-0.dtd"
   xmlns:inkscape="http://www.inkscape.org/namespaces/inkscape"
   version="1.1"
   id="Capa_1"
   x="0px"
   y="0px"
   width="532.195px"
   height="532.196px"
   viewBox="0 0 532.195 532.196"
   style="enable-background:new 0 0 532.195 532.196;"
   xml:space="preserve"
   sodipodi:docname="uslugi.svg"
   inkscape:version="1.0.2-2 (e86c870879, 2021-01-15)"><metadata
   id="metadata51"><rdf:RDF><cc:Work
       rdf:about=""><dc:format>image/svg+xml</dc:format><dc:type
         rdf:resource="http://purl.org/dc/dcmitype/StillImage" /></cc:Work></rdf:RDF></metadata><defs
   id="defs49" /><sodipodi:namedview
   pagecolor="#ffffff"
   bordercolor="#666666"
   borderopacity="1"
   objecttolerance="10"
   gridtolerance="10"
   guidetolerance="10"
   inkscape:pageopacity="0"
   inkscape:pageshadow="2"
   inkscape:window-width="1920"
   inkscape:window-height="1017"
   id="namedview47"
   showgrid="false"
   inkscape:zoom="1.597156"
   inkscape:cx="266.0975"
   inkscape:cy="266.09799"
   inkscape:window-x="-8"
   inkscape:window-y="-8"
   inkscape:window-maximized="1"
   inkscape:current-layer="Capa_1"
   inkscape:document-rotation="0" />
<g
   id="g14"
   transform="translate(33.183986,0.62611292)">
	<g
   id="g12">
		<polygon
   points="131.992,103.132 336.09,103.132 336.09,56.797 386.605,56.797 386.605,248.536 410.521,225.076 410.521,32.883 336.09,32.883 336.09,0 274.038,0 274.038,23.915 195.329,23.915 195.329,0 131.992,0 131.992,32.883 42.107,32.883 42.107,532.196 410.521,532.196 410.521,373.667 386.605,403.141 386.605,508.282 66.022,508.282 66.022,56.797 131.992,56.797 "
   id="polygon2" />
		<rect
   x="111.125"
   y="165.908"
   width="245.82001"
   height="17.936001"
   id="rect4" />
		<rect
   x="111.125"
   y="209.254"
   width="245.82001"
   height="17.936001"
   id="rect6" />
		<rect
   x="111.125"
   y="254.32201"
   width="245.82001"
   height="17.936001"
   id="rect8" />
		<path
   d="m 490.088,255.051 -38.511,-36.83 -17.516,18.298 -8.618,-8.244 -155.13,162.184 -1.244,5.23 -17.136,71.523 70.693,-20.295 5.173,-1.483 155.13,-162.172 -10.357,-9.908 z M 450.946,270.284 310.19,417.421 299.074,406.783 439.83,259.641 Z m -25.105,-24.008 9.388,8.98 -140.756,147.137 -9.388,-8.991 z m -144.54,199.264 -9.026,-8.629 7.438,-31.037 32.275,30.85 z m 42.879,-14.748 -9.389,-8.991 140.756,-147.125 9.389,8.985 z"
   id="path10" />
	</g>
</g>
<g
   id="g16">
</g>
<g
   id="g18">
</g>
<g
   id="g20">
</g>
<g
   id="g22">
</g>
<g
   id="g24">
</g>
<g
   id="g26">
</g>
<g
   id="g28">
</g>
<g
   id="g30">
</g>
<g
   id="g32">
</g>
<g
   id="g34">
</g>
<g
   id="g36">
</g>
<g
   id="g38">
</g>
<g
   id="g40">
</g>
<g
   id="g42">
</g>
<g
   id="g44">
</g>
</svg>
